<svg xmlns="http://www.w3.org/2000/svg" width="64" height="64" shape-rendering="crispEdges"><path fill="#B66800" d="M21 2h1v1h-1zM22 2h1v1h-1zM23 2h1v1h-1zM24 2h1v1h-1zM25 2h1v1h-1zM26 2h1v1h-1zM27 2h1v1h-1zM28 2h1v1h-1zM29 2h1v1h-1zM30 2h1v1h-1zM31 2h1v1h-1zM32 2h1v1h-1zM33 2h1v1h-1zM34 2h1v1h-1zM35 2h1v1h-1zM36 2h1v1h-1zM37 2h1v1h-1zM38 2h1v1h-1zM39 2h1v1h-1zM40 2h1v1h-1zM41 2h1v1h-1zM42 2h1v1h-1zM43 2h1v1h-1zM21 3h1v1h-1zM22 3h1v1h-1zM23 3h1v1h-1zM24 3h1v1h-1zM25 3h1v1h-1zM26 3h1v1h-1zM27 3h1v1h-1zM28 3h1v1h-1zM29 3h1v1h-1zM30 3h1v1h-1zM31 3h1v1h-1zM32 3h1v1h-1zM33 3h1v1h-1zM34 3h1v1h-1zM35 3h1v1h-1zM36 3h1v1h-1zM37 3h1v1h-1zM38 3h1v1h-1zM39 3h1v1h-1zM40 3h1v1h-1zM41 3h1v1h-1zM42 3h1v1h-1zM43 3h1v1h-1zM17 4h1v1h-1zM18 4h1v1h-1zM19 4h1v1h-1zM20 4h1v1h-1zM21 4h1v1h-1zM22 4h1v1h-1zM23 4h1v1h-1zM24 4h1v1h-1zM25 4h1v1h-1zM26 4h1v1h-1zM27 4h1v1h-1zM28 4h1v1h-1zM29 4h1v1h-1zM30 4h1v1h-1zM31 4h1v1h-1zM32 4h1v1h-1zM33 4h1v1h-1zM34 4h1v1h-1zM35 4h1v1h-1zM36 4h1v1h-1zM37 4h1v1h-1zM38 4h1v1h-1zM39 4h1v1h-1zM40 4h1v1h-1zM41 4h1v1h-1zM42 4h1v1h-1zM43 4h1v1h-1zM44 4h1v1h-1zM45 4h1v1h-1zM17 5h1v1h-1zM18 5h1v1h-1zM19 5h1v1h-1zM20 5h1v1h-1zM21 5h1v1h-1zM22 5h1v1h-1zM23 5h1v1h-1zM24 5h1v1h-1zM25 5h1v1h-1zM26 5h1v1h-1zM27 5h1v1h-1zM28 5h1v1h-1zM29 5h1v1h-1zM30 5h1v1h-1zM31 5h1v1h-1zM32 5h1v1h-1zM33 5h1v1h-1zM34 5h1v1h-1zM35 5h1v1h-1zM36 5h1v1h-1zM37 5h1v1h-1zM38 5h1v1h-1zM39 5h1v1h-1zM40 5h1v1h-1zM41 5h1v1h-1zM42 5h1v1h-1zM43 5h1v1h-1zM44 5h1v1h-1zM45 5h1v1h-1zM15 6h1v1h-1zM16 6h1v1h-1zM17 6h1v1h-1zM18 6h1v1h-1zM19 6h1v1h-1zM20 6h1v1h-1zM21 6h1v1h-1zM22 6h1v1h-1z"/><path fill="#B47014" d="M23 6h1v1h-1zM24 6h1v1h-1zM25 6h1v1h-1zM26 6h1v1h-1zM27 6h1v1h-1zM28 6h1v1h-1zM29 6h1v1h-1zM30 6h1v1h-1zM31 6h1v1h-1zM32 6h1v1h-1zM33 6h1v1h-1z"/><path fill="#B66800" d="M34 6h1v1h-1zM35 6h1v1h-1zM36 6h1v1h-1zM37 6h1v1h-1zM38 6h1v1h-1zM39 6h1v1h-1zM40 6h1v1h-1zM41 6h1v1h-1zM42 6h1v1h-1zM43 6h1v1h-1zM44 6h1v1h-1zM45 6h1v1h-1zM46 6h1v1h-1zM47 6h1v1h-1zM48 6h1v1h-1zM49 6h1v1h-1zM15 7h1v1h-1zM16 7h1v1h-1zM17 7h1v1h-1zM18 7h1v1h-1zM19 7h1v1h-1zM20 7h1v1h-1zM21 7h1v1h-1zM22 7h1v1h-1z"/><path fill="#B47014" d="M23 7h1v1h-1zM24 7h1v1h-1zM25 7h1v1h-1zM26 7h1v1h-1zM27 7h1v1h-1zM28 7h1v1h-1zM29 7h1v1h-1zM30 7h1v1h-1zM31 7h1v1h-1zM32 7h1v1h-1zM33 7h1v1h-1z"/><path fill="#B66800" d="M34 7h1v1h-1zM35 7h1v1h-1zM36 7h1v1h-1zM37 7h1v1h-1zM38 7h1v1h-1zM39 7h1v1h-1zM40 7h1v1h-1zM41 7h1v1h-1zM42 7h1v1h-1zM43 7h1v1h-1zM44 7h1v1h-1zM45 7h1v1h-1zM46 7h1v1h-1zM47 7h1v1h-1zM48 7h1v1h-1zM49 7h1v1h-1zM15 8h1v1h-1zM16 8h1v1h-1zM17 8h1v1h-1zM18 8h1v1h-1z"/><path fill="#B47014" d="M19 8h1v1h-1zM20 8h1v1h-1z"/><path fill="#935B10" d="M21 8h1v1h-1zM22 8h1v1h-1z"/><path fill="#B47014" d="M23 8h1v1h-1zM24 8h1v1h-1z"/><path fill="#935B10" d="M25 8h1v1h-1zM26 8h1v1h-1zM27 8h1v1h-1zM28 8h1v1h-1z"/><path fill="#B47014" d="M29 8h1v1h-1zM30 8h1v1h-1zM31 8h1v1h-1zM32 8h1v1h-1z"/><path fill="#935B10" d="M33 8h1v1h-1zM34 8h1v1h-1zM35 8h1v1h-1z"/><path fill="#B66800" d="M36 8h1v1h-1zM37 8h1v1h-1zM38 8h1v1h-1zM39 8h1v1h-1zM40 8h1v1h-1zM41 8h1v1h-1zM42 8h1v1h-1zM43 8h1v1h-1zM44 8h1v1h-1zM45 8h1v1h-1zM46 8h1v1h-1zM47 8h1v1h-1zM48 8h1v1h-1zM49 8h1v1h-1zM15 9h1v1h-1zM16 9h1v1h-1zM17 9h1v1h-1zM18 9h1v1h-1z"/><path fill="#B47014" d="M19 9h1v1h-1zM20 9h1v1h-1z"/><path fill="#935B10" d="M21 9h1v1h-1zM22 9h1v1h-1z"/><path fill="#B47014" d="M23 9h1v1h-1zM24 9h1v1h-1z"/><path fill="#935B10" d="M25 9h1v1h-1zM26 9h1v1h-1zM27 9h1v1h-1zM28 9h1v1h-1z"/><path fill="#B47014" d="M29 9h1v1h-1zM30 9h1v1h-1zM31 9h1v1h-1zM32 9h1v1h-1z"/><path fill="#935B10" d="M33 9h1v1h-1zM34 9h1v1h-1zM35 9h1v1h-1z"/><path fill="#B66800" d="M36 9h1v1h-1zM37 9h1v1h-1zM38 9h1v1h-1zM39 9h1v1h-1zM40 9h1v1h-1zM41 9h1v1h-1zM42 9h1v1h-1zM43 9h1v1h-1zM44 9h1v1h-1zM45 9h1v1h-1zM46 9h1v1h-1zM47 9h1v1h-1zM48 9h1v1h-1zM49 9h1v1h-1zM11 10h1v1h-1zM12 10h1v1h-1zM13 10h1v1h-1zM14 10h1v1h-1zM15 10h1v1h-1zM16 10h1v1h-1zM17 10h1v1h-1zM18 10h1v1h-1z"/><path fill="#935B10" d="M19 10h1v1h-1zM20 10h1v1h-1zM21 10h1v1h-1zM22 10h1v1h-1z"/><path fill="#B47014" d="M23 10h1v1h-1zM24 10h1v1h-1z"/><path fill="#935B10" d="M25 10h1v1h-1zM26 10h1v1h-1z"/><path fill="#B47014" d="M27 10h1v1h-1zM28 10h1v1h-1z"/><path fill="#935B10" d="M29 10h1v1h-1zM30 10h1v1h-1zM31 10h1v1h-1zM32 10h1v1h-1zM33 10h1v1h-1z"/><path fill="#B47014" d="M34 10h1v1h-1zM35 10h1v1h-1z"/><path fill="#935B10" d="M36 10h1v1h-1zM37 10h1v1h-1zM38 10h1v1h-1zM39 10h1v1h-1z"/><path fill="#B66800" d="M40 10h1v1h-1zM41 10h1v1h-1z"/><path fill="#935B10" d="M42 10h1v1h-1zM43 10h1v1h-1z"/><path fill="#B66800" d="M44 10h1v1h-1zM45 10h1v1h-1zM46 10h1v1h-1zM47 10h1v1h-1zM48 10h1v1h-1zM49 10h1v1h-1zM50 10h1v1h-1zM51 10h1v1h-1zM52 10h1v1h-1zM53 10h1v1h-1zM11 11h1v1h-1zM12 11h1v1h-1zM13 11h1v1h-1zM14 11h1v1h-1zM15 11h1v1h-1zM16 11h1v1h-1zM17 11h1v1h-1zM18 11h1v1h-1z"/><path fill="#935B10" d="M19 11h1v1h-1zM20 11h1v1h-1zM21 11h1v1h-1zM22 11h1v1h-1z"/><path fill="#B47014" d="M23 11h1v1h-1zM24 11h1v1h-1z"/><path fill="#935B10" d="M25 11h1v1h-1zM26 11h1v1h-1z"/><path fill="#B47014" d="M27 11h1v1h-1zM28 11h1v1h-1z"/><path fill="#935B10" d="M29 11h1v1h-1zM30 11h1v1h-1zM31 11h1v1h-1zM32 11h1v1h-1zM33 11h1v1h-1z"/><path fill="#B47014" d="M34 11h1v1h-1zM35 11h1v1h-1z"/><path fill="#935B10" d="M36 11h1v1h-1zM37 11h1v1h-1zM38 11h1v1h-1zM39 11h1v1h-1z"/><path fill="#B66800" d="M40 11h1v1h-1zM41 11h1v1h-1z"/><path fill="#935B10" d="M42 11h1v1h-1zM43 11h1v1h-1z"/><path fill="#B66800" d="M44 11h1v1h-1zM45 11h1v1h-1zM46 11h1v1h-1zM47 11h1v1h-1zM48 11h1v1h-1zM49 11h1v1h-1zM50 11h1v1h-1zM51 11h1v1h-1zM52 11h1v1h-1zM53 11h1v1h-1zM11 12h1v1h-1zM12 12h1v1h-1zM13 12h1v1h-1zM14 12h1v1h-1z"/><path fill="#935B10" d="M15 12h1v1h-1zM16 12h1v1h-1zM17 12h1v1h-1zM18 12h1v1h-1zM19 12h1v1h-1zM20 12h1v1h-1zM21 12h1v1h-1zM22 12h1v1h-1zM23 12h1v1h-1zM24 12h1v1h-1z"/><path fill="#B47014" d="M25 12h1v1h-1zM26 12h1v1h-1z"/><path fill="#935B10" d="M27 12h1v1h-1zM28 12h1v1h-1zM29 12h1v1h-1zM30 12h1v1h-1zM31 12h1v1h-1zM32 12h1v1h-1zM33 12h1v1h-1zM34 12h1v1h-1zM35 12h1v1h-1z"/><path fill="#B47014" d="M36 12h1v1h-1zM37 12h1v1h-1z"/><path fill="#935B10" d="M38 12h1v1h-1zM39 12h1v1h-1z"/><path fill="#B66800" d="M40 12h1v1h-1zM41 12h1v1h-1zM42 12h1v1h-1zM43 12h1v1h-1z"/><path fill="#935B10" d="M44 12h1v1h-1zM45 12h1v1h-1zM46 12h1v1h-1zM47 12h1v1h-1z"/><path fill="#B66800" d="M48 12h1v1h-1zM49 12h1v1h-1zM50 12h1v1h-1zM51 12h1v1h-1zM52 12h1v1h-1zM53 12h1v1h-1zM11 13h1v1h-1zM12 13h1v1h-1zM13 13h1v1h-1zM14 13h1v1h-1z"/><path fill="#935B10" d="M15 13h1v1h-1zM16 13h1v1h-1zM17 13h1v1h-1zM18 13h1v1h-1zM19 13h1v1h-1zM20 13h1v1h-1zM21 13h1v1h-1zM22 13h1v1h-1zM23 13h1v1h-1zM24 13h1v1h-1z"/><path fill="#B47014" d="M25 13h1v1h-1zM26 13h1v1h-1z"/><path fill="#935B10" d="M27 13h1v1h-1zM28 13h1v1h-1zM29 13h1v1h-1zM30 13h1v1h-1zM31 13h1v1h-1zM32 13h1v1h-1zM33 13h1v1h-1zM34 13h1v1h-1zM35 13h1v1h-1z"/><path fill="#B47014" d="M36 13h1v1h-1zM37 13h1v1h-1z"/><path fill="#935B10" d="M38 13h1v1h-1zM39 13h1v1h-1z"/><path fill="#B66800" d="M40 13h1v1h-1zM41 13h1v1h-1zM42 13h1v1h-1zM43 13h1v1h-1z"/><path fill="#935B10" d="M44 13h1v1h-1zM45 13h1v1h-1zM46 13h1v1h-1zM47 13h1v1h-1z"/><path fill="#B66800" d="M48 13h1v1h-1zM49 13h1v1h-1zM50 13h1v1h-1zM51 13h1v1h-1zM52 13h1v1h-1zM53 13h1v1h-1z"/><path fill="#B47014" d="M9 14h1v1H9zM10 14h1v1h-1zM11 14h1v1h-1zM12 14h1v1h-1z"/><path fill="#935B10" d="M13 14h1v1h-1zM14 14h1v1h-1z"/><path fill="#B7865B" d="M15 14h1v1h-1zM16 14h1v1h-1z"/><path fill="#FDCEA6" d="M17 14h1v1h-1zM18 14h1v1h-1zM19 14h1v1h-1zM20 14h1v1h-1z"/><path fill="#B7865B" d="M21 14h1v1h-1zM22 14h1v1h-1zM23 14h1v1h-1zM24 14h1v1h-1z"/><path fill="#B47014" d="M25 14h1v1h-1zM26 14h1v1h-1z"/><path fill="#935B10" d="M27 14h1v1h-1zM28 14h1v1h-1zM29 14h1v1h-1zM30 14h1v1h-1z"/><path fill="#B7865B" d="M31 14h1v1h-1zM32 14h1v1h-1zM33 14h1v1h-1z"/><path fill="#FDCEA6" d="M34 14h1v1h-1zM35 14h1v1h-1zM36 14h1v1h-1zM37 14h1v1h-1zM38 14h1v1h-1zM39 14h1v1h-1z"/><path fill="#935B10" d="M40 14h1v1h-1zM41 14h1v1h-1zM42 14h1v1h-1zM43 14h1v1h-1z"/><path fill="#B66800" d="M44 14h1v1h-1zM45 14h1v1h-1z"/><path fill="#B47014" d="M46 14h1v1h-1zM47 14h1v1h-1z"/><path fill="#935B10" d="M48 14h1v1h-1zM49 14h1v1h-1z"/><path fill="#B47014" d="M50 14h1v1h-1zM51 14h1v1h-1z"/><path fill="#B66800" d="M52 14h1v1h-1zM53 14h1v1h-1zM54 14h1v1h-1zM55 14h1v1h-1z"/><path fill="#B47014" d="M9 15h1v1H9zM10 15h1v1h-1zM11 15h1v1h-1zM12 15h1v1h-1z"/><path fill="#935B10" d="M13 15h1v1h-1zM14 15h1v1h-1z"/><path fill="#B7865B" d="M15 15h1v1h-1zM16 15h1v1h-1z"/><path fill="#FDCEA6" d="M17 15h1v1h-1zM18 15h1v1h-1zM19 15h1v1h-1zM20 15h1v1h-1z"/><path fill="#B7865B" d="M21 15h1v1h-1zM22 15h1v1h-1zM23 15h1v1h-1zM24 15h1v1h-1z"/><path fill="#B47014" d="M25 15h1v1h-1zM26 15h1v1h-1z"/><path fill="#935B10" d="M27 15h1v1h-1zM28 15h1v1h-1zM29 15h1v1h-1zM30 15h1v1h-1z"/><path fill="#B7865B" d="M31 15h1v1h-1zM32 15h1v1h-1zM33 15h1v1h-1z"/><path fill="#FDCEA6" d="M34 15h1v1h-1zM35 15h1v1h-1zM36 15h1v1h-1zM37 15h1v1h-1zM38 15h1v1h-1zM39 15h1v1h-1z"/><path fill="#935B10" d="M40 15h1v1h-1zM41 15h1v1h-1zM42 15h1v1h-1zM43 15h1v1h-1z"/><path fill="#B66800" d="M44 15h1v1h-1zM45 15h1v1h-1z"/><path fill="#B47014" d="M46 15h1v1h-1zM47 15h1v1h-1z"/><path fill="#935B10" d="M48 15h1v1h-1zM49 15h1v1h-1z"/><path fill="#B47014" d="M50 15h1v1h-1zM51 15h1v1h-1z"/><path fill="#B66800" d="M52 15h1v1h-1zM53 15h1v1h-1zM54 15h1v1h-1zM55 15h1v1h-1z"/><path fill="#B47014" d="M9 16h1v1H9zM10 16h1v1h-1zM11 16h1v1h-1zM12 16h1v1h-1zM13 16h1v1h-1zM14 16h1v1h-1z"/><path fill="#FDCEA6" d="M15 16h1v1h-1zM16 16h1v1h-1zM17 16h1v1h-1zM18 16h1v1h-1zM19 16h1v1h-1zM20 16h1v1h-1zM21 16h1v1h-1zM22 16h1v1h-1zM23 16h1v1h-1zM24 16h1v1h-1zM25 16h1v1h-1zM26 16h1v1h-1zM27 16h1v1h-1zM28 16h1v1h-1zM29 16h1v1h-1zM30 16h1v1h-1zM31 16h1v1h-1zM32 16h1v1h-1zM33 16h1v1h-1zM34 16h1v1h-1zM35 16h1v1h-1zM36 16h1v1h-1zM37 16h1v1h-1zM38 16h1v1h-1zM39 16h1v1h-1zM40 16h1v1h-1zM41 16h1v1h-1zM42 16h1v1h-1zM43 16h1v1h-1z"/><path fill="#B66800" d="M44 16h1v1h-1zM45 16h1v1h-1zM46 16h1v1h-1zM47 16h1v1h-1zM48 16h1v1h-1zM49 16h1v1h-1z"/><path fill="#935B10" d="M50 16h1v1h-1zM51 16h1v1h-1z"/><path fill="#B47014" d="M52 16h1v1h-1zM53 16h1v1h-1z"/><path fill="#B66800" d="M54 16h1v1h-1zM55 16h1v1h-1z"/><path fill="#B47014" d="M9 17h1v1H9zM10 17h1v1h-1zM11 17h1v1h-1zM12 17h1v1h-1zM13 17h1v1h-1zM14 17h1v1h-1z"/><path fill="#FDCEA6" d="M15 17h1v1h-1zM16 17h1v1h-1zM17 17h1v1h-1zM18 17h1v1h-1zM19 17h1v1h-1zM20 17h1v1h-1zM21 17h1v1h-1zM22 17h1v1h-1zM23 17h1v1h-1zM24 17h1v1h-1zM25 17h1v1h-1zM26 17h1v1h-1zM27 17h1v1h-1zM28 17h1v1h-1zM29 17h1v1h-1zM30 17h1v1h-1zM31 17h1v1h-1zM32 17h1v1h-1zM33 17h1v1h-1zM34 17h1v1h-1zM35 17h1v1h-1zM36 17h1v1h-1zM37 17h1v1h-1zM38 17h1v1h-1zM39 17h1v1h-1zM40 17h1v1h-1zM41 17h1v1h-1zM42 17h1v1h-1zM43 17h1v1h-1z"/><path fill="#B66800" d="M44 17h1v1h-1zM45 17h1v1h-1zM46 17h1v1h-1zM47 17h1v1h-1zM48 17h1v1h-1zM49 17h1v1h-1z"/><path fill="#935B10" d="M50 17h1v1h-1zM51 17h1v1h-1z"/><path fill="#B47014" d="M52 17h1v1h-1zM53 17h1v1h-1z"/><path fill="#B66800" d="M54 17h1v1h-1zM55 17h1v1h-1z"/><path fill="#B47014" d="M9 18h1v1H9zM10 18h1v1h-1z"/><path fill="#B66800" d="M11 18h1v1h-1zM12 18h1v1h-1z"/><path fill="#B47014" d="M13 18h1v1h-1zM14 18h1v1h-1z"/><path fill="#FDCEA6" d="M15 18h1v1h-1zM16 18h1v1h-1zM17 18h1v1h-1zM18 18h1v1h-1zM19 18h1v1h-1zM20 18h1v1h-1zM21 18h1v1h-1zM22 18h1v1h-1zM23 18h1v1h-1zM24 18h1v1h-1zM25 18h1v1h-1zM26 18h1v1h-1zM27 18h1v1h-1zM28 18h1v1h-1zM29 18h1v1h-1zM30 18h1v1h-1zM31 18h1v1h-1zM32 18h1v1h-1zM33 18h1v1h-1zM34 18h1v1h-1zM35 18h1v1h-1zM36 18h1v1h-1zM37 18h1v1h-1zM38 18h1v1h-1zM39 18h1v1h-1zM40 18h1v1h-1zM41 18h1v1h-1zM42 18h1v1h-1zM43 18h1v1h-1z"/><path fill="#935B10" d="M44 18h1v1h-1zM45 18h1v1h-1zM46 18h1v1h-1zM47 18h1v1h-1z"/><path fill="#B66800" d="M48 18h1v1h-1zM49 18h1v1h-1z"/><path fill="#B47014" d="M50 18h1v1h-1zM51 18h1v1h-1zM52 18h1v1h-1zM53 18h1v1h-1z"/><path fill="#B66800" d="M54 18h1v1h-1zM55 18h1v1h-1z"/><path fill="#B47014" d="M9 19h1v1H9zM10 19h1v1h-1z"/><path fill="#B66800" d="M11 19h1v1h-1zM12 19h1v1h-1z"/><path fill="#B47014" d="M13 19h1v1h-1zM14 19h1v1h-1z"/><path fill="#FDCEA6" d="M15 19h1v1h-1zM16 19h1v1h-1zM17 19h1v1h-1zM18 19h1v1h-1zM19 19h1v1h-1zM20 19h1v1h-1zM21 19h1v1h-1zM22 19h1v1h-1zM23 19h1v1h-1zM24 19h1v1h-1zM25 19h1v1h-1zM26 19h1v1h-1zM27 19h1v1h-1zM28 19h1v1h-1zM29 19h1v1h-1zM30 19h1v1h-1zM31 19h1v1h-1zM32 19h1v1h-1zM33 19h1v1h-1zM34 19h1v1h-1zM35 19h1v1h-1zM36 19h1v1h-1zM37 19h1v1h-1zM38 19h1v1h-1zM39 19h1v1h-1zM40 19h1v1h-1zM41 19h1v1h-1zM42 19h1v1h-1zM43 19h1v1h-1z"/><path fill="#935B10" d="M44 19h1v1h-1zM45 19h1v1h-1zM46 19h1v1h-1zM47 19h1v1h-1z"/><path fill="#B66800" d="M48 19h1v1h-1zM49 19h1v1h-1z"/><path fill="#B47014" d="M50 19h1v1h-1zM51 19h1v1h-1zM52 19h1v1h-1zM53 19h1v1h-1z"/><path fill="#B66800" d="M54 19h1v1h-1zM55 19h1v1h-1z"/><path fill="#B47014" d="M9 20h1v1H9zM10 20h1v1h-1z"/><path fill="#B66800" d="M11 20h1v1h-1zM12 20h1v1h-1zM13 20h1v1h-1zM14 20h1v1h-1z"/><path fill="#FDCEA6" d="M15 20h1v1h-1zM16 20h1v1h-1zM17 20h1v1h-1zM18 20h1v1h-1zM19 20h1v1h-1zM20 20h1v1h-1zM21 20h1v1h-1zM22 20h1v1h-1zM23 20h1v1h-1zM24 20h1v1h-1zM25 20h1v1h-1zM26 20h1v1h-1zM27 20h1v1h-1zM28 20h1v1h-1zM29 20h1v1h-1zM30 20h1v1h-1zM31 20h1v1h-1zM32 20h1v1h-1zM33 20h1v1h-1zM34 20h1v1h-1zM35 20h1v1h-1zM36 20h1v1h-1zM37 20h1v1h-1zM38 20h1v1h-1zM39 20h1v1h-1zM40 20h1v1h-1zM41 20h1v1h-1zM42 20h1v1h-1zM43 20h1v1h-1zM44 20h1v1h-1zM45 20h1v1h-1zM46 20h1v1h-1zM47 20h1v1h-1zM48 20h1v1h-1zM49 20h1v1h-1z"/><path fill="#B66800" d="M50 20h1v1h-1zM51 20h1v1h-1z"/><path fill="#B47014" d="M52 20h1v1h-1zM53 20h1v1h-1z"/><path fill="#B66800" d="M54 20h1v1h-1zM55 20h1v1h-1z"/><path fill="#B47014" d="M9 21h1v1H9zM10 21h1v1h-1z"/><path fill="#B66800" d="M11 21h1v1h-1zM12 21h1v1h-1zM13 21h1v1h-1zM14 21h1v1h-1z"/><path fill="#FDCEA6" d="M15 21h1v1h-1zM16 21h1v1h-1zM17 21h1v1h-1zM18 21h1v1h-1zM19 21h1v1h-1zM20 21h1v1h-1zM21 21h1v1h-1zM22 21h1v1h-1zM23 21h1v1h-1zM24 21h1v1h-1zM25 21h1v1h-1zM26 21h1v1h-1zM27 21h1v1h-1zM28 21h1v1h-1zM29 21h1v1h-1zM30 21h1v1h-1zM31 21h1v1h-1zM32 21h1v1h-1zM33 21h1v1h-1zM34 21h1v1h-1zM35 21h1v1h-1zM36 21h1v1h-1zM37 21h1v1h-1zM38 21h1v1h-1zM39 21h1v1h-1zM40 21h1v1h-1zM41 21h1v1h-1zM42 21h1v1h-1zM43 21h1v1h-1zM44 21h1v1h-1zM45 21h1v1h-1zM46 21h1v1h-1zM47 21h1v1h-1zM48 21h1v1h-1zM49 21h1v1h-1z"/><path fill="#B66800" d="M50 21h1v1h-1zM51 21h1v1h-1z"/><path fill="#B47014" d="M52 21h1v1h-1zM53 21h1v1h-1z"/><path fill="#B66800" d="M54 21h1v1h-1zM55 21h1v1h-1z"/><path fill="#B47014" d="M9 22h1v1H9zM10 22h1v1h-1z"/><path fill="#B66800" d="M11 22h1v1h-1zM12 22h1v1h-1zM13 22h1v1h-1zM14 22h1v1h-1z"/><path fill="#FDCEA6" d="M15 22h1v1h-1zM16 22h1v1h-1zM17 22h1v1h-1zM18 22h1v1h-1zM19 22h1v1h-1zM20 22h1v1h-1zM21 22h1v1h-1zM22 22h1v1h-1zM23 22h1v1h-1zM24 22h1v1h-1zM25 22h1v1h-1zM26 22h1v1h-1zM27 22h1v1h-1zM28 22h1v1h-1zM29 22h1v1h-1zM30 22h1v1h-1zM31 22h1v1h-1zM32 22h1v1h-1zM33 22h1v1h-1zM34 22h1v1h-1zM35 22h1v1h-1zM36 22h1v1h-1zM37 22h1v1h-1zM38 22h1v1h-1zM39 22h1v1h-1zM40 22h1v1h-1zM41 22h1v1h-1zM42 22h1v1h-1zM43 22h1v1h-1zM44 22h1v1h-1zM45 22h1v1h-1zM46 22h1v1h-1zM47 22h1v1h-1zM48 22h1v1h-1zM49 22h1v1h-1z"/><path fill="#B66800" d="M50 22h1v1h-1zM51 22h1v1h-1z"/><path fill="#B47014" d="M52 22h1v1h-1zM53 22h1v1h-1z"/><path fill="#B66800" d="M54 22h1v1h-1zM55 22h1v1h-1z"/><path fill="#B47014" d="M9 23h1v1H9zM10 23h1v1h-1z"/><path fill="#B66800" d="M11 23h1v1h-1zM12 23h1v1h-1zM13 23h1v1h-1zM14 23h1v1h-1z"/><path fill="#FDCEA6" d="M15 23h1v1h-1zM16 23h1v1h-1zM17 23h1v1h-1zM18 23h1v1h-1zM19 23h1v1h-1zM20 23h1v1h-1zM21 23h1v1h-1zM22 23h1v1h-1zM23 23h1v1h-1zM24 23h1v1h-1zM25 23h1v1h-1zM26 23h1v1h-1zM27 23h1v1h-1zM28 23h1v1h-1zM29 23h1v1h-1zM30 23h1v1h-1zM31 23h1v1h-1zM32 23h1v1h-1zM33 23h1v1h-1zM34 23h1v1h-1zM35 23h1v1h-1zM36 23h1v1h-1zM37 23h1v1h-1zM38 23h1v1h-1zM39 23h1v1h-1zM40 23h1v1h-1zM41 23h1v1h-1zM42 23h1v1h-1zM43 23h1v1h-1zM44 23h1v1h-1zM45 23h1v1h-1zM46 23h1v1h-1zM47 23h1v1h-1zM48 23h1v1h-1zM49 23h1v1h-1z"/><path fill="#B66800" d="M50 23h1v1h-1zM51 23h1v1h-1z"/><path fill="#B47014" d="M52 23h1v1h-1zM53 23h1v1h-1z"/><path fill="#B66800" d="M54 23h1v1h-1zM55 23h1v1h-1zM11 24h1v1h-1zM12 24h1v1h-1zM13 24h1v1h-1zM14 24h1v1h-1z"/><path fill="#FDCEA6" d="M15 24h1v1h-1zM16 24h1v1h-1z"/><path fill="#935B10" d="M17 24h1v1h-1zM18 24h1v1h-1zM19 24h1v1h-1zM20 24h1v1h-1zM21 24h1v1h-1zM22 24h1v1h-1zM23 24h1v1h-1zM24 24h1v1h-1z"/><path fill="#FDCEA6" d="M25 24h1v1h-1zM26 24h1v1h-1zM27 24h1v1h-1zM28 24h1v1h-1zM29 24h1v1h-1zM30 24h1v1h-1zM31 24h1v1h-1zM32 24h1v1h-1zM33 24h1v1h-1z"/><path fill="#B7865B" d="M34 24h1v1h-1zM35 24h1v1h-1z"/><path fill="#935B10" d="M36 24h1v1h-1zM37 24h1v1h-1zM38 24h1v1h-1zM39 24h1v1h-1zM40 24h1v1h-1zM41 24h1v1h-1zM42 24h1v1h-1zM43 24h1v1h-1z"/><path fill="#FDCEA6" d="M44 24h1v1h-1zM45 24h1v1h-1zM46 24h1v1h-1zM47 24h1v1h-1zM48 24h1v1h-1zM49 24h1v1h-1z"/><path fill="#B66800" d="M50 24h1v1h-1zM51 24h1v1h-1z"/><path fill="#B47014" d="M52 24h1v1h-1zM53 24h1v1h-1z"/><path fill="#B66800" d="M54 24h1v1h-1zM55 24h1v1h-1zM11 25h1v1h-1zM12 25h1v1h-1zM13 25h1v1h-1zM14 25h1v1h-1z"/><path fill="#FDCEA6" d="M15 25h1v1h-1zM16 25h1v1h-1z"/><path fill="#935B10" d="M17 25h1v1h-1zM18 25h1v1h-1zM19 25h1v1h-1zM20 25h1v1h-1zM21 25h1v1h-1zM22 25h1v1h-1zM23 25h1v1h-1zM24 25h1v1h-1z"/><path fill="#FDCEA6" d="M25 25h1v1h-1zM26 25h1v1h-1zM27 25h1v1h-1zM28 25h1v1h-1zM29 25h1v1h-1zM30 25h1v1h-1zM31 25h1v1h-1zM32 25h1v1h-1zM33 25h1v1h-1z"/><path fill="#B7865B" d="M34 25h1v1h-1zM35 25h1v1h-1z"/><path fill="#935B10" d="M36 25h1v1h-1zM37 25h1v1h-1zM38 25h1v1h-1zM39 25h1v1h-1zM40 25h1v1h-1zM41 25h1v1h-1zM42 25h1v1h-1zM43 25h1v1h-1z"/><path fill="#FDCEA6" d="M44 25h1v1h-1zM45 25h1v1h-1zM46 25h1v1h-1zM47 25h1v1h-1zM48 25h1v1h-1zM49 25h1v1h-1z"/><path fill="#B66800" d="M50 25h1v1h-1zM51 25h1v1h-1z"/><path fill="#B47014" d="M52 25h1v1h-1zM53 25h1v1h-1z"/><path fill="#B66800" d="M54 25h1v1h-1zM55 25h1v1h-1zM11 26h1v1h-1zM12 26h1v1h-1zM13 26h1v1h-1zM14 26h1v1h-1z"/><path fill="#935B10" d="M15 26h1v1h-1zM16 26h1v1h-1z"/><path fill="#FDCEA6" d="M17 26h1v1h-1zM18 26h1v1h-1zM19 26h1v1h-1zM20 26h1v1h-1zM21 26h1v1h-1zM22 26h1v1h-1zM23 26h1v1h-1zM24 26h1v1h-1zM25 26h1v1h-1zM26 26h1v1h-1zM27 26h1v1h-1zM28 26h1v1h-1zM29 26h1v1h-1zM30 26h1v1h-1zM31 26h1v1h-1zM32 26h1v1h-1zM33 26h1v1h-1zM34 26h1v1h-1zM35 26h1v1h-1zM36 26h1v1h-1zM37 26h1v1h-1zM38 26h1v1h-1zM39 26h1v1h-1zM40 26h1v1h-1zM41 26h1v1h-1zM42 26h1v1h-1zM43 26h1v1h-1z"/><path fill="#935B10" d="M44 26h1v1h-1zM45 26h1v1h-1z"/><path fill="#FDCEA6" d="M46 26h1v1h-1zM47 26h1v1h-1zM48 26h1v1h-1zM49 26h1v1h-1z"/><path fill="#B66800" d="M50 26h1v1h-1zM51 26h1v1h-1z"/><path fill="#B47014" d="M52 26h1v1h-1zM53 26h1v1h-1z"/><path fill="#B66800" d="M54 26h1v1h-1zM55 26h1v1h-1zM11 27h1v1h-1zM12 27h1v1h-1zM13 27h1v1h-1zM14 27h1v1h-1z"/><path fill="#935B10" d="M15 27h1v1h-1zM16 27h1v1h-1z"/><path fill="#FDCEA6" d="M17 27h1v1h-1zM18 27h1v1h-1zM19 27h1v1h-1zM20 27h1v1h-1zM21 27h1v1h-1zM22 27h1v1h-1zM23 27h1v1h-1zM24 27h1v1h-1zM25 27h1v1h-1zM26 27h1v1h-1zM27 27h1v1h-1zM28 27h1v1h-1zM29 27h1v1h-1zM30 27h1v1h-1zM31 27h1v1h-1zM32 27h1v1h-1zM33 27h1v1h-1zM34 27h1v1h-1zM35 27h1v1h-1zM36 27h1v1h-1zM37 27h1v1h-1zM38 27h1v1h-1zM39 27h1v1h-1zM40 27h1v1h-1zM41 27h1v1h-1zM42 27h1v1h-1zM43 27h1v1h-1z"/><path fill="#935B10" d="M44 27h1v1h-1zM45 27h1v1h-1z"/><path fill="#FDCEA6" d="M46 27h1v1h-1zM47 27h1v1h-1zM48 27h1v1h-1zM49 27h1v1h-1z"/><path fill="#B66800" d="M50 27h1v1h-1zM51 27h1v1h-1z"/><path fill="#B47014" d="M52 27h1v1h-1zM53 27h1v1h-1z"/><path fill="#B66800" d="M54 27h1v1h-1zM55 27h1v1h-1z"/><path fill="#FDCEA6" d="M9 28h1v1H9zM10 28h1v1h-1z"/><path fill="#C1B8B2" d="M11 28h1v1h-1zM12 28h1v1h-1z"/><path fill="#BF9F86" d="M13 28h1v1h-1zM14 28h1v1h-1z"/><path fill="#CFBB9A" d="M15 28h1v1h-1zM16 28h1v1h-1z"/><path fill="#C39E82" d="M17 28h1v1h-1zM18 28h1v1h-1zM19 28h1v1h-1zM20 28h1v1h-1z"/><path fill="#C5A185" d="M21 28h1v1h-1zM22 28h1v1h-1z"/><path fill="#C39E82" d="M23 28h1v1h-1zM24 28h1v1h-1z"/><path fill="#FDCEA6" d="M25 28h1v1h-1zM26 28h1v1h-1z"/><path fill="#FCE5CF" d="M27 28h1v1h-1zM28 28h1v1h-1zM29 28h1v1h-1zM30 28h1v1h-1z"/><path fill="#FDCEA6" d="M31 28h1v1h-1zM32 28h1v1h-1z"/><path fill="#C39E82" d="M33 28h1v1h-1z"/><path fill="#C4A083" d="M34 28h1v1h-1zM35 28h1v1h-1z"/><path fill="#C39E82" d="M36 28h1v1h-1zM37 28h1v1h-1zM38 28h1v1h-1zM39 28h1v1h-1zM40 28h1v1h-1zM41 28h1v1h-1zM42 28h1v1h-1zM43 28h1v1h-1z"/><path fill="#C09A7E" d="M44 28h1v1h-1zM45 28h1v1h-1z"/><path fill="#FCE7D2" d="M46 28h1v1h-1zM47 28h1v1h-1z"/><path fill="#FDE7D2" d="M48 28h1v1h-1zM49 28h1v1h-1z"/><path fill="#C1B8B2" d="M50 28h1v1h-1zM51 28h1v1h-1zM52 28h1v1h-1zM53 28h1v1h-1zM54 28h1v1h-1zM55 28h1v1h-1z"/><path fill="#FDCEA6" d="M9 29h1v1H9zM10 29h1v1h-1z"/><path fill="#C1B8B2" d="M11 29h1v1h-1zM12 29h1v1h-1z"/><path fill="#BF9F86" d="M13 29h1v1h-1zM14 29h1v1h-1z"/><path fill="#CFBB9A" d="M15 29h1v1h-1zM16 29h1v1h-1z"/><path fill="#C39E82" d="M17 29h1v1h-1zM18 29h1v1h-1zM19 29h1v1h-1zM20 29h1v1h-1z"/><path fill="#C5A185" d="M21 29h1v1h-1zM22 29h1v1h-1z"/><path fill="#C39E82" d="M23 29h1v1h-1zM24 29h1v1h-1z"/><path fill="#FDCEA6" d="M25 29h1v1h-1zM26 29h1v1h-1z"/><path fill="#FCE5CF" d="M27 29h1v1h-1zM28 29h1v1h-1zM29 29h1v1h-1zM30 29h1v1h-1z"/><path fill="#FDCEA6" d="M31 29h1v1h-1zM32 29h1v1h-1z"/><path fill="#C39E82" d="M33 29h1v1h-1z"/><path fill="#C4A083" d="M34 29h1v1h-1zM35 29h1v1h-1z"/><path fill="#C39E82" d="M36 29h1v1h-1zM37 29h1v1h-1zM38 29h1v1h-1zM39 29h1v1h-1zM40 29h1v1h-1zM41 29h1v1h-1zM42 29h1v1h-1zM43 29h1v1h-1z"/><path fill="#C09A7E" d="M44 29h1v1h-1zM45 29h1v1h-1z"/><path fill="#FCE7D2" d="M46 29h1v1h-1zM47 29h1v1h-1z"/><path fill="#FDE7D2" d="M48 29h1v1h-1zM49 29h1v1h-1z"/><path fill="#C1B8B2" d="M50 29h1v1h-1zM51 29h1v1h-1zM52 29h1v1h-1zM53 29h1v1h-1zM54 29h1v1h-1zM55 29h1v1h-1z"/><path fill="#FDCEA6" d="M9 30h1v1H9zM10 30h1v1h-1z"/><path fill="#C1B8B2" d="M11 30h1v1h-1zM12 30h1v1h-1z"/><path fill="#CEBA99" d="M13 30h1v1h-1zM14 30h1v1h-1z"/><path fill="#CFBB9A" d="M15 30h1v1h-1zM16 30h1v1h-1z"/><path fill="#D3BE9C" d="M17 30h1v1h-1zM18 30h1v1h-1z"/><path fill="#1B4663" d="M19 30h1v1h-1zM20 30h1v1h-1zM21 30h1v1h-1zM22 30h1v1h-1z"/><path fill="#D0E1E0" d="M23 30h1v1h-1zM24 30h1v1h-1z"/><path fill="#FCE5CF" d="M25 30h1v1h-1zM26 30h1v1h-1z"/><path fill="#EFB88A" d="M27 30h1v1h-1zM28 30h1v1h-1z"/><path fill="#FDCEA6" d="M29 30h1v1h-1zM30 30h1v1h-1z"/><path fill="#FCE5CF" d="M31 30h1v1h-1zM32 30h1v1h-1z"/><path fill="#CFBB9A" d="M33 30h1v1h-1z"/><path fill="#C8AC8E" d="M34 30h1v1h-1zM35 30h1v1h-1z"/><path fill="#1B4663" d="M36 30h1v1h-1zM37 30h1v1h-1zM38 30h1v1h-1zM39 30h1v1h-1z"/><path fill="#D0E1E0" d="M40 30h1v1h-1zM41 30h1v1h-1z"/><path fill="#CFBB9A" d="M42 30h1v1h-1zM43 30h1v1h-1z"/><path fill="#C9B593" d="M44 30h1v1h-1zM45 30h1v1h-1z"/><path fill="#FCE5CF" d="M46 30h1v1h-1zM47 30h1v1h-1z"/><path fill="#FDE7D1" d="M48 30h1v1h-1zM49 30h1v1h-1z"/><path fill="#B3A69C" d="M50 30h1v1h-1zM51 30h1v1h-1z"/><path fill="#935B10" d="M52 30h1v1h-1zM53 30h1v1h-1z"/><path fill="#EFB88A" d="M54 30h1v1h-1zM55 30h1v1h-1z"/><path fill="#FDCEA6" d="M9 31h1v1H9zM10 31h1v1h-1z"/><path fill="#C1B8B2" d="M11 31h1v1h-1zM12 31h1v1h-1z"/><path fill="#CEBA99" d="M13 31h1v1h-1zM14 31h1v1h-1z"/><path fill="#CFBB9A" d="M15 31h1v1h-1zM16 31h1v1h-1z"/><path fill="#D3BE9C" d="M17 31h1v1h-1zM18 31h1v1h-1z"/><path fill="#1B4663" d="M19 31h1v1h-1zM20 31h1v1h-1zM21 31h1v1h-1zM22 31h1v1h-1z"/><path fill="#D0E1E0" d="M23 31h1v1h-1zM24 31h1v1h-1z"/><path fill="#FCE5CF" d="M25 31h1v1h-1zM26 31h1v1h-1z"/><path fill="#EFB88A" d="M27 31h1v1h-1zM28 31h1v1h-1z"/><path fill="#FDCEA6" d="M29 31h1v1h-1zM30 31h1v1h-1z"/><path fill="#FCE5CF" d="M31 31h1v1h-1zM32 31h1v1h-1z"/><path fill="#CFBB9A" d="M33 31h1v1h-1z"/><path fill="#C8AC8E" d="M34 31h1v1h-1zM35 31h1v1h-1z"/><path fill="#1B4663" d="M36 31h1v1h-1zM37 31h1v1h-1zM38 31h1v1h-1zM39 31h1v1h-1z"/><path fill="#D0E1E0" d="M40 31h1v1h-1zM41 31h1v1h-1z"/><path fill="#CFBB9A" d="M42 31h1v1h-1zM43 31h1v1h-1z"/><path fill="#C9B593" d="M44 31h1v1h-1zM45 31h1v1h-1z"/><path fill="#FCE5CF" d="M46 31h1v1h-1zM47 31h1v1h-1z"/><path fill="#FDE7D1" d="M48 31h1v1h-1zM49 31h1v1h-1z"/><path fill="#B3A69C" d="M50 31h1v1h-1zM51 31h1v1h-1z"/><path fill="#935B10" d="M52 31h1v1h-1zM53 31h1v1h-1z"/><path fill="#EFB88A" d="M54 31h1v1h-1zM55 31h1v1h-1z"/><path fill="#DD9277" d="M9 32h1v1H9zM10 32h1v1h-1z"/><path fill="#C1B8B2" d="M11 32h1v1h-1zM12 32h1v1h-1z"/><path fill="#CEBA99" d="M13 32h1v1h-1zM14 32h1v1h-1z"/><path fill="#CFBB9A" d="M15 32h1v1h-1zM16 32h1v1h-1z"/><path fill="#C8A688" d="M17 32h1v1h-1zM18 32h1v1h-1z"/><path fill="#1B4663" d="M19 32h1v1h-1zM20 32h1v1h-1zM21 32h1v1h-1zM22 32h1v1h-1z"/><path fill="#D0E1E0" d="M23 32h1v1h-1zM24 32h1v1h-1z"/><path fill="#F6D0B3" d="M25 32h1v1h-1zM26 32h1v1h-1z"/><path fill="#EFB88A" d="M27 32h1v1h-1zM28 32h1v1h-1z"/><path fill="#FDCEA6" d="M29 32h1v1h-1zM30 32h1v1h-1zM31 32h1v1h-1zM32 32h1v1h-1z"/><path fill="#CFBB9A" d="M33 32h1v1h-1zM34 32h1v1h-1zM35 32h1v1h-1z"/><path fill="#1B4663" d="M36 32h1v1h-1zM37 32h1v1h-1zM38 32h1v1h-1zM39 32h1v1h-1z"/><path fill="#D0E1E0" d="M40 32h1v1h-1zM41 32h1v1h-1z"/><path fill="#CFBB9A" d="M42 32h1v1h-1zM43 32h1v1h-1z"/><path fill="#C9B593" d="M44 32h1v1h-1zM45 32h1v1h-1z"/><path fill="#FDCEA6" d="M46 32h1v1h-1zM47 32h1v1h-1zM48 32h1v1h-1zM49 32h1v1h-1z"/><path fill="#935B10" d="M50 32h1v1h-1zM51 32h1v1h-1z"/><path fill="#FDCEA6" d="M52 32h1v1h-1zM53 32h1v1h-1zM54 32h1v1h-1zM55 32h1v1h-1z"/><path fill="#DD9277" d="M9 33h1v1H9zM10 33h1v1h-1z"/><path fill="#C1B8B2" d="M11 33h1v1h-1zM12 33h1v1h-1z"/><path fill="#CEBA99" d="M13 33h1v1h-1zM14 33h1v1h-1z"/><path fill="#CFBB9A" d="M15 33h1v1h-1zM16 33h1v1h-1z"/><path fill="#C8A688" d="M17 33h1v1h-1zM18 33h1v1h-1z"/><path fill="#1B4663" d="M19 33h1v1h-1zM20 33h1v1h-1zM21 33h1v1h-1zM22 33h1v1h-1z"/><path fill="#D0E1E0" d="M23 33h1v1h-1zM24 33h1v1h-1z"/><path fill="#F6D0B3" d="M25 33h1v1h-1zM26 33h1v1h-1z"/><path fill="#EFB88A" d="M27 33h1v1h-1zM28 33h1v1h-1z"/><path fill="#FDCEA6" d="M29 33h1v1h-1zM30 33h1v1h-1zM31 33h1v1h-1zM32 33h1v1h-1z"/><path fill="#CFBB9A" d="M33 33h1v1h-1zM34 33h1v1h-1zM35 33h1v1h-1z"/><path fill="#1B4663" d="M36 33h1v1h-1zM37 33h1v1h-1zM38 33h1v1h-1zM39 33h1v1h-1z"/><path fill="#D0E1E0" d="M40 33h1v1h-1zM41 33h1v1h-1z"/><path fill="#CFBB9A" d="M42 33h1v1h-1zM43 33h1v1h-1z"/><path fill="#C9B593" d="M44 33h1v1h-1zM45 33h1v1h-1z"/><path fill="#FDCEA6" d="M46 33h1v1h-1zM47 33h1v1h-1zM48 33h1v1h-1zM49 33h1v1h-1z"/><path fill="#935B10" d="M50 33h1v1h-1zM51 33h1v1h-1z"/><path fill="#FDCEA6" d="M52 33h1v1h-1zM53 33h1v1h-1zM54 33h1v1h-1zM55 33h1v1h-1z"/><path fill="#DD9277" d="M9 34h1v1H9zM10 34h1v1h-1z"/><path fill="#B47014" d="M11 34h1v1h-1zM12 34h1v1h-1z"/><path fill="#CEBA99" d="M13 34h1v1h-1zM14 34h1v1h-1z"/><path fill="#CFBB9A" d="M15 34h1v1h-1zM16 34h1v1h-1zM17 34h1v1h-1zM18 34h1v1h-1z"/><path fill="#CEBA99" d="M19 34h1v1h-1zM20 34h1v1h-1zM21 34h1v1h-1zM22 34h1v1h-1zM23 34h1v1h-1zM24 34h1v1h-1z"/><path fill="#FDCEA6" d="M25 34h1v1h-1zM26 34h1v1h-1z"/><path fill="#EFB88A" d="M27 34h1v1h-1zM28 34h1v1h-1z"/><path fill="#FDCEA6" d="M29 34h1v1h-1zM30 34h1v1h-1zM31 34h1v1h-1zM32 34h1v1h-1z"/><path fill="#CFBB9A" d="M33 34h1v1h-1zM34 34h1v1h-1zM35 34h1v1h-1z"/><path fill="#CEBA99" d="M36 34h1v1h-1zM37 34h1v1h-1zM38 34h1v1h-1zM39 34h1v1h-1z"/><path fill="#CFBB9A" d="M40 34h1v1h-1zM41 34h1v1h-1zM42 34h1v1h-1zM43 34h1v1h-1z"/><path fill="#C9B593" d="M44 34h1v1h-1zM45 34h1v1h-1z"/><path fill="#FDCEA6" d="M46 34h1v1h-1zM47 34h1v1h-1zM48 34h1v1h-1zM49 34h1v1h-1z"/><path fill="#935B10" d="M50 34h1v1h-1zM51 34h1v1h-1z"/><path fill="#DD9277" d="M52 34h1v1h-1zM53 34h1v1h-1zM54 34h1v1h-1zM55 34h1v1h-1zM9 35h1v1H9zM10 35h1v1h-1z"/><path fill="#B47014" d="M11 35h1v1h-1zM12 35h1v1h-1z"/><path fill="#CEBA99" d="M13 35h1v1h-1zM14 35h1v1h-1z"/><path fill="#CFBB9A" d="M15 35h1v1h-1zM16 35h1v1h-1zM17 35h1v1h-1zM18 35h1v1h-1z"/><path fill="#CEBA99" d="M19 35h1v1h-1zM20 35h1v1h-1zM21 35h1v1h-1zM22 35h1v1h-1zM23 35h1v1h-1zM24 35h1v1h-1z"/><path fill="#FDCEA6" d="M25 35h1v1h-1zM26 35h1v1h-1z"/><path fill="#EFB88A" d="M27 35h1v1h-1zM28 35h1v1h-1z"/><path fill="#FDCEA6" d="M29 35h1v1h-1zM30 35h1v1h-1zM31 35h1v1h-1zM32 35h1v1h-1z"/><path fill="#CFBB9A" d="M33 35h1v1h-1zM34 35h1v1h-1zM35 35h1v1h-1z"/><path fill="#CEBA99" d="M36 35h1v1h-1zM37 35h1v1h-1zM38 35h1v1h-1zM39 35h1v1h-1z"/><path fill="#CFBB9A" d="M40 35h1v1h-1zM41 35h1v1h-1zM42 35h1v1h-1zM43 35h1v1h-1z"/><path fill="#C9B593" d="M44 35h1v1h-1zM45 35h1v1h-1z"/><path fill="#FDCEA6" d="M46 35h1v1h-1zM47 35h1v1h-1zM48 35h1v1h-1zM49 35h1v1h-1z"/><path fill="#935B10" d="M50 35h1v1h-1zM51 35h1v1h-1z"/><path fill="#DD9277" d="M52 35h1v1h-1zM53 35h1v1h-1zM54 35h1v1h-1zM55 35h1v1h-1zM9 36h1v1H9zM10 36h1v1h-1z"/><path fill="#B66800" d="M11 36h1v1h-1zM12 36h1v1h-1z"/><path fill="#FDCEA6" d="M13 36h1v1h-1zM14 36h1v1h-1z"/><path fill="#CFBB9A" d="M15 36h1v1h-1zM16 36h1v1h-1zM17 36h1v1h-1zM18 36h1v1h-1zM19 36h1v1h-1zM20 36h1v1h-1z"/><path fill="#CDB997" d="M21 36h1v1h-1zM22 36h1v1h-1z"/><path fill="#FDCEA6" d="M23 36h1v1h-1zM24 36h1v1h-1zM25 36h1v1h-1zM26 36h1v1h-1z"/><path fill="#EFB88A" d="M27 36h1v1h-1zM28 36h1v1h-1z"/><path fill="#FDCEA6" d="M29 36h1v1h-1zM30 36h1v1h-1zM31 36h1v1h-1zM32 36h1v1h-1zM33 36h1v1h-1z"/><path fill="#CDBA98" d="M34 36h1v1h-1zM35 36h1v1h-1z"/><path fill="#CFBB9A" d="M36 36h1v1h-1zM37 36h1v1h-1zM38 36h1v1h-1zM39 36h1v1h-1zM40 36h1v1h-1zM41 36h1v1h-1z"/><path fill="#CDB997" d="M42 36h1v1h-1zM43 36h1v1h-1z"/><path fill="#FDCEA6" d="M44 36h1v1h-1zM45 36h1v1h-1zM46 36h1v1h-1zM47 36h1v1h-1zM48 36h1v1h-1zM49 36h1v1h-1z"/><path fill="#B66800" d="M50 36h1v1h-1zM51 36h1v1h-1z"/><path fill="#DD9277" d="M52 36h1v1h-1zM53 36h1v1h-1zM54 36h1v1h-1zM55 36h1v1h-1zM9 37h1v1H9zM10 37h1v1h-1z"/><path fill="#B66800" d="M11 37h1v1h-1zM12 37h1v1h-1z"/><path fill="#FDCEA6" d="M13 37h1v1h-1zM14 37h1v1h-1z"/><path fill="#CFBB9A" d="M15 37h1v1h-1zM16 37h1v1h-1zM17 37h1v1h-1zM18 37h1v1h-1zM19 37h1v1h-1zM20 37h1v1h-1z"/><path fill="#CDB997" d="M21 37h1v1h-1zM22 37h1v1h-1z"/><path fill="#FDCEA6" d="M23 37h1v1h-1zM24 37h1v1h-1zM25 37h1v1h-1zM26 37h1v1h-1z"/><path fill="#EFB88A" d="M27 37h1v1h-1zM28 37h1v1h-1z"/><path fill="#FDCEA6" d="M29 37h1v1h-1zM30 37h1v1h-1zM31 37h1v1h-1zM32 37h1v1h-1zM33 37h1v1h-1z"/><path fill="#CDBA98" d="M34 37h1v1h-1zM35 37h1v1h-1z"/><path fill="#CFBB9A" d="M36 37h1v1h-1zM37 37h1v1h-1zM38 37h1v1h-1zM39 37h1v1h-1zM40 37h1v1h-1zM41 37h1v1h-1z"/><path fill="#CDB997" d="M42 37h1v1h-1zM43 37h1v1h-1z"/><path fill="#FDCEA6" d="M44 37h1v1h-1zM45 37h1v1h-1zM46 37h1v1h-1zM47 37h1v1h-1zM48 37h1v1h-1zM49 37h1v1h-1z"/><path fill="#B66800" d="M50 37h1v1h-1zM51 37h1v1h-1z"/><path fill="#DD9277" d="M52 37h1v1h-1zM53 37h1v1h-1zM54 37h1v1h-1zM55 37h1v1h-1zM9 38h1v1H9zM10 38h1v1h-1z"/><path fill="#B66800" d="M11 38h1v1h-1zM12 38h1v1h-1z"/><path fill="#FDCEA6" d="M13 38h1v1h-1zM14 38h1v1h-1zM15 38h1v1h-1zM16 38h1v1h-1zM17 38h1v1h-1zM18 38h1v1h-1zM19 38h1v1h-1zM20 38h1v1h-1zM21 38h1v1h-1zM22 38h1v1h-1zM23 38h1v1h-1zM24 38h1v1h-1z"/><path fill="#EEA68B" d="M25 38h1v1h-1zM26 38h1v1h-1z"/><path fill="#FDCEA6" d="M27 38h1v1h-1zM28 38h1v1h-1zM29 38h1v1h-1zM30 38h1v1h-1z"/><path fill="#EEA68B" d="M31 38h1v1h-1zM32 38h1v1h-1z"/><path fill="#FDCEA6" d="M33 38h1v1h-1zM34 38h1v1h-1zM35 38h1v1h-1zM36 38h1v1h-1zM37 38h1v1h-1zM38 38h1v1h-1zM39 38h1v1h-1zM40 38h1v1h-1zM41 38h1v1h-1zM42 38h1v1h-1zM43 38h1v1h-1zM44 38h1v1h-1zM45 38h1v1h-1zM46 38h1v1h-1zM47 38h1v1h-1zM48 38h1v1h-1zM49 38h1v1h-1z"/><path fill="#B66800" d="M50 38h1v1h-1zM51 38h1v1h-1z"/><path fill="#DD9277" d="M52 38h1v1h-1zM53 38h1v1h-1z"/><path fill="#FDCEA6" d="M54 38h1v1h-1zM55 38h1v1h-1z"/><path fill="#DD9277" d="M9 39h1v1H9zM10 39h1v1h-1z"/><path fill="#B66800" d="M11 39h1v1h-1zM12 39h1v1h-1z"/><path fill="#FDCEA6" d="M13 39h1v1h-1zM14 39h1v1h-1zM15 39h1v1h-1zM16 39h1v1h-1zM17 39h1v1h-1zM18 39h1v1h-1zM19 39h1v1h-1zM20 39h1v1h-1zM21 39h1v1h-1zM22 39h1v1h-1zM23 39h1v1h-1zM24 39h1v1h-1z"/><path fill="#EEA68B" d="M25 39h1v1h-1zM26 39h1v1h-1z"/><path fill="#FDCEA6" d="M27 39h1v1h-1zM28 39h1v1h-1zM29 39h1v1h-1zM30 39h1v1h-1z"/><path fill="#EEA68B" d="M31 39h1v1h-1zM32 39h1v1h-1z"/><path fill="#FDCEA6" d="M33 39h1v1h-1zM34 39h1v1h-1zM35 39h1v1h-1zM36 39h1v1h-1zM37 39h1v1h-1zM38 39h1v1h-1zM39 39h1v1h-1zM40 39h1v1h-1zM41 39h1v1h-1zM42 39h1v1h-1zM43 39h1v1h-1zM44 39h1v1h-1zM45 39h1v1h-1zM46 39h1v1h-1zM47 39h1v1h-1zM48 39h1v1h-1zM49 39h1v1h-1z"/><path fill="#B66800" d="M50 39h1v1h-1zM51 39h1v1h-1z"/><path fill="#DD9277" d="M52 39h1v1h-1zM53 39h1v1h-1z"/><path fill="#FDCEA6" d="M54 39h1v1h-1zM55 39h1v1h-1z"/><path fill="#B66800" d="M11 40h1v1h-1zM12 40h1v1h-1z"/><path fill="#FDCEA6" d="M13 40h1v1h-1zM14 40h1v1h-1zM15 40h1v1h-1zM16 40h1v1h-1zM17 40h1v1h-1zM18 40h1v1h-1zM19 40h1v1h-1zM20 40h1v1h-1zM21 40h1v1h-1zM22 40h1v1h-1z"/><path fill="#EFB88A" d="M23 40h1v1h-1zM24 40h1v1h-1z"/><path fill="#EEA68B" d="M25 40h1v1h-1zM26 40h1v1h-1z"/><path fill="#FDCEA6" d="M27 40h1v1h-1zM28 40h1v1h-1zM29 40h1v1h-1zM30 40h1v1h-1zM31 40h1v1h-1zM32 40h1v1h-1z"/><path fill="#EEA68B" d="M33 40h1v1h-1z"/><path fill="#EFB88A" d="M34 40h1v1h-1zM35 40h1v1h-1z"/><path fill="#FDCEA6" d="M36 40h1v1h-1zM37 40h1v1h-1zM38 40h1v1h-1zM39 40h1v1h-1zM40 40h1v1h-1zM41 40h1v1h-1zM42 40h1v1h-1zM43 40h1v1h-1zM44 40h1v1h-1zM45 40h1v1h-1zM46 40h1v1h-1zM47 40h1v1h-1zM48 40h1v1h-1zM49 40h1v1h-1z"/><path fill="#B66800" d="M50 40h1v1h-1zM51 40h1v1h-1z"/><path fill="#FDCEA6" d="M52 40h1v1h-1zM53 40h1v1h-1zM54 40h1v1h-1zM55 40h1v1h-1z"/><path fill="#B66800" d="M11 41h1v1h-1zM12 41h1v1h-1z"/><path fill="#FDCEA6" d="M13 41h1v1h-1zM14 41h1v1h-1zM15 41h1v1h-1zM16 41h1v1h-1zM17 41h1v1h-1zM18 41h1v1h-1zM19 41h1v1h-1zM20 41h1v1h-1zM21 41h1v1h-1zM22 41h1v1h-1z"/><path fill="#EFB88A" d="M23 41h1v1h-1zM24 41h1v1h-1z"/><path fill="#EEA68B" d="M25 41h1v1h-1zM26 41h1v1h-1z"/><path fill="#FDCEA6" d="M27 41h1v1h-1zM28 41h1v1h-1zM29 41h1v1h-1zM30 41h1v1h-1zM31 41h1v1h-1zM32 41h1v1h-1z"/><path fill="#EEA68B" d="M33 41h1v1h-1z"/><path fill="#EFB88A" d="M34 41h1v1h-1zM35 41h1v1h-1z"/><path fill="#FDCEA6" d="M36 41h1v1h-1zM37 41h1v1h-1zM38 41h1v1h-1zM39 41h1v1h-1zM40 41h1v1h-1zM41 41h1v1h-1zM42 41h1v1h-1zM43 41h1v1h-1zM44 41h1v1h-1zM45 41h1v1h-1zM46 41h1v1h-1zM47 41h1v1h-1zM48 41h1v1h-1zM49 41h1v1h-1z"/><path fill="#B66800" d="M50 41h1v1h-1zM51 41h1v1h-1z"/><path fill="#FDCEA6" d="M52 41h1v1h-1zM53 41h1v1h-1zM54 41h1v1h-1zM55 41h1v1h-1z"/><path fill="#B66800" d="M11 42h1v1h-1zM12 42h1v1h-1z"/><path fill="#FDCEA6" d="M13 42h1v1h-1zM14 42h1v1h-1zM15 42h1v1h-1zM16 42h1v1h-1zM17 42h1v1h-1zM18 42h1v1h-1zM19 42h1v1h-1zM20 42h1v1h-1zM21 42h1v1h-1zM22 42h1v1h-1zM23 42h1v1h-1zM24 42h1v1h-1z"/><path fill="#79501B" d="M25 42h1v1h-1zM26 42h1v1h-1z"/><path fill="#EEA68B" d="M27 42h1v1h-1zM28 42h1v1h-1zM29 42h1v1h-1zM30 42h1v1h-1z"/><path fill="#79501B" d="M31 42h1v1h-1zM32 42h1v1h-1z"/><path fill="#FDCEA6" d="M33 42h1v1h-1zM34 42h1v1h-1zM35 42h1v1h-1zM36 42h1v1h-1zM37 42h1v1h-1zM38 42h1v1h-1zM39 42h1v1h-1zM40 42h1v1h-1zM41 42h1v1h-1zM42 42h1v1h-1zM43 42h1v1h-1zM44 42h1v1h-1zM45 42h1v1h-1zM46 42h1v1h-1zM47 42h1v1h-1z"/><path fill="#B66800" d="M48 42h1v1h-1zM49 42h1v1h-1zM50 42h1v1h-1zM51 42h1v1h-1zM11 43h1v1h-1zM12 43h1v1h-1z"/><path fill="#FDCEA6" d="M13 43h1v1h-1zM14 43h1v1h-1zM15 43h1v1h-1zM16 43h1v1h-1zM17 43h1v1h-1zM18 43h1v1h-1zM19 43h1v1h-1zM20 43h1v1h-1zM21 43h1v1h-1zM22 43h1v1h-1zM23 43h1v1h-1zM24 43h1v1h-1z"/><path fill="#79501B" d="M25 43h1v1h-1zM26 43h1v1h-1z"/><path fill="#EEA68B" d="M27 43h1v1h-1zM28 43h1v1h-1zM29 43h1v1h-1zM30 43h1v1h-1z"/><path fill="#79501B" d="M31 43h1v1h-1zM32 43h1v1h-1z"/><path fill="#FDCEA6" d="M33 43h1v1h-1zM34 43h1v1h-1zM35 43h1v1h-1zM36 43h1v1h-1zM37 43h1v1h-1zM38 43h1v1h-1zM39 43h1v1h-1zM40 43h1v1h-1zM41 43h1v1h-1zM42 43h1v1h-1zM43 43h1v1h-1zM44 43h1v1h-1zM45 43h1v1h-1zM46 43h1v1h-1zM47 43h1v1h-1z"/><path fill="#B66800" d="M48 43h1v1h-1zM49 43h1v1h-1zM50 43h1v1h-1zM51 43h1v1h-1zM11 44h1v1h-1zM12 44h1v1h-1zM13 44h1v1h-1zM14 44h1v1h-1z"/><path fill="#FDCEA6" d="M15 44h1v1h-1zM16 44h1v1h-1zM17 44h1v1h-1zM18 44h1v1h-1zM19 44h1v1h-1zM20 44h1v1h-1zM21 44h1v1h-1zM22 44h1v1h-1zM23 44h1v1h-1zM24 44h1v1h-1zM25 44h1v1h-1zM26 44h1v1h-1zM27 44h1v1h-1zM28 44h1v1h-1zM29 44h1v1h-1zM30 44h1v1h-1zM31 44h1v1h-1zM32 44h1v1h-1zM33 44h1v1h-1zM34 44h1v1h-1zM35 44h1v1h-1zM36 44h1v1h-1zM37 44h1v1h-1zM38 44h1v1h-1zM39 44h1v1h-1zM40 44h1v1h-1zM41 44h1v1h-1zM42 44h1v1h-1zM43 44h1v1h-1zM44 44h1v1h-1zM45 44h1v1h-1z"/><path fill="#935B10" d="M46 44h1v1h-1zM47 44h1v1h-1zM48 44h1v1h-1zM49 44h1v1h-1z"/><path fill="#B66800" d="M50 44h1v1h-1zM51 44h1v1h-1zM11 45h1v1h-1zM12 45h1v1h-1zM13 45h1v1h-1zM14 45h1v1h-1z"/><path fill="#FDCEA6" d="M15 45h1v1h-1zM16 45h1v1h-1zM17 45h1v1h-1zM18 45h1v1h-1zM19 45h1v1h-1zM20 45h1v1h-1zM21 45h1v1h-1zM22 45h1v1h-1zM23 45h1v1h-1zM24 45h1v1h-1zM25 45h1v1h-1zM26 45h1v1h-1zM27 45h1v1h-1zM28 45h1v1h-1zM29 45h1v1h-1zM30 45h1v1h-1zM31 45h1v1h-1zM32 45h1v1h-1zM33 45h1v1h-1zM34 45h1v1h-1zM35 45h1v1h-1zM36 45h1v1h-1zM37 45h1v1h-1zM38 45h1v1h-1zM39 45h1v1h-1zM40 45h1v1h-1zM41 45h1v1h-1zM42 45h1v1h-1zM43 45h1v1h-1zM44 45h1v1h-1zM45 45h1v1h-1z"/><path fill="#935B10" d="M46 45h1v1h-1zM47 45h1v1h-1zM48 45h1v1h-1zM49 45h1v1h-1z"/><path fill="#B66800" d="M50 45h1v1h-1zM51 45h1v1h-1z"/><path fill="#935B10" d="M13 46h1v1h-1zM14 46h1v1h-1z"/><path fill="#FDCEA6" d="M15 46h1v1h-1zM16 46h1v1h-1zM17 46h1v1h-1zM18 46h1v1h-1zM19 46h1v1h-1zM20 46h1v1h-1zM21 46h1v1h-1zM22 46h1v1h-1zM23 46h1v1h-1zM24 46h1v1h-1z"/><path fill="#F8A46D" d="M25 46h1v1h-1zM26 46h1v1h-1z"/><path fill="#FDCEA6" d="M27 46h1v1h-1zM28 46h1v1h-1zM29 46h1v1h-1zM30 46h1v1h-1zM31 46h1v1h-1zM32 46h1v1h-1zM33 46h1v1h-1zM34 46h1v1h-1zM35 46h1v1h-1zM36 46h1v1h-1zM37 46h1v1h-1zM38 46h1v1h-1zM39 46h1v1h-1zM40 46h1v1h-1zM41 46h1v1h-1zM42 46h1v1h-1zM43 46h1v1h-1z"/><path fill="#B66800" d="M44 46h1v1h-1zM45 46h1v1h-1z"/><path fill="#935B10" d="M46 46h1v1h-1zM47 46h1v1h-1z"/><path fill="#B66800" d="M48 46h1v1h-1zM49 46h1v1h-1z"/><path fill="#935B10" d="M13 47h1v1h-1zM14 47h1v1h-1z"/><path fill="#FDCEA6" d="M15 47h1v1h-1zM16 47h1v1h-1zM17 47h1v1h-1zM18 47h1v1h-1zM19 47h1v1h-1zM20 47h1v1h-1zM21 47h1v1h-1zM22 47h1v1h-1zM23 47h1v1h-1zM24 47h1v1h-1z"/><path fill="#F8A46D" d="M25 47h1v1h-1zM26 47h1v1h-1z"/><path fill="#FDCEA6" d="M27 47h1v1h-1zM28 47h1v1h-1zM29 47h1v1h-1zM30 47h1v1h-1zM31 47h1v1h-1zM32 47h1v1h-1zM33 47h1v1h-1zM34 47h1v1h-1zM35 47h1v1h-1zM36 47h1v1h-1zM37 47h1v1h-1zM38 47h1v1h-1zM39 47h1v1h-1zM40 47h1v1h-1zM41 47h1v1h-1zM42 47h1v1h-1zM43 47h1v1h-1z"/><path fill="#B66800" d="M44 47h1v1h-1zM45 47h1v1h-1z"/><path fill="#935B10" d="M46 47h1v1h-1zM47 47h1v1h-1z"/><path fill="#B66800" d="M48 47h1v1h-1zM49 47h1v1h-1z"/><path fill="#935B10" d="M13 48h1v1h-1zM14 48h1v1h-1z"/><path fill="#B66800" d="M15 48h1v1h-1zM16 48h1v1h-1zM17 48h1v1h-1zM18 48h1v1h-1z"/><path fill="#FDCEA6" d="M19 48h1v1h-1zM20 48h1v1h-1zM21 48h1v1h-1zM22 48h1v1h-1zM23 48h1v1h-1zM24 48h1v1h-1z"/><path fill="#FFFDFD" d="M25 48h1v1h-1zM26 48h1v1h-1zM27 48h1v1h-1zM28 48h1v1h-1zM29 48h1v1h-1zM30 48h1v1h-1zM31 48h1v1h-1zM32 48h1v1h-1z"/><path fill="#FFFCFC" d="M33 48h1v1h-1z"/><path fill="#FDCEA6" d="M34 48h1v1h-1zM35 48h1v1h-1zM36 48h1v1h-1zM37 48h1v1h-1zM38 48h1v1h-1zM39 48h1v1h-1zM40 48h1v1h-1zM41 48h1v1h-1z"/><path fill="#B66800" d="M42 48h1v1h-1zM43 48h1v1h-1z"/><path fill="#B47014" d="M44 48h1v1h-1zM45 48h1v1h-1z"/><path fill="#935B10" d="M46 48h1v1h-1zM47 48h1v1h-1zM48 48h1v1h-1zM49 48h1v1h-1zM13 49h1v1h-1zM14 49h1v1h-1z"/><path fill="#B66800" d="M15 49h1v1h-1zM16 49h1v1h-1zM17 49h1v1h-1zM18 49h1v1h-1z"/><path fill="#FDCEA6" d="M19 49h1v1h-1zM20 49h1v1h-1zM21 49h1v1h-1zM22 49h1v1h-1zM23 49h1v1h-1zM24 49h1v1h-1z"/><path fill="#FFFDFD" d="M25 49h1v1h-1zM26 49h1v1h-1zM27 49h1v1h-1zM28 49h1v1h-1zM29 49h1v1h-1zM30 49h1v1h-1zM31 49h1v1h-1zM32 49h1v1h-1z"/><path fill="#FFFCFC" d="M33 49h1v1h-1z"/><path fill="#FDCEA6" d="M34 49h1v1h-1zM35 49h1v1h-1zM36 49h1v1h-1zM37 49h1v1h-1zM38 49h1v1h-1zM39 49h1v1h-1zM40 49h1v1h-1zM41 49h1v1h-1z"/><path fill="#B66800" d="M42 49h1v1h-1zM43 49h1v1h-1z"/><path fill="#B47014" d="M44 49h1v1h-1zM45 49h1v1h-1z"/><path fill="#935B10" d="M46 49h1v1h-1zM47 49h1v1h-1zM48 49h1v1h-1zM49 49h1v1h-1zM13 50h1v1h-1zM14 50h1v1h-1zM15 50h1v1h-1zM16 50h1v1h-1z"/><path fill="#B66800" d="M17 50h1v1h-1zM18 50h1v1h-1z"/><path fill="#B47014" d="M19 50h1v1h-1zM20 50h1v1h-1z"/><path fill="#FDCEA6" d="M21 50h1v1h-1zM22 50h1v1h-1zM23 50h1v1h-1zM24 50h1v1h-1z"/><path fill="#ED9F6E" d="M25 50h1v1h-1zM26 50h1v1h-1z"/><path fill="#FCBEA7" d="M27 50h1v1h-1zM28 50h1v1h-1zM29 50h1v1h-1zM30 50h1v1h-1z"/><path fill="#F2A371" d="M31 50h1v1h-1zM32 50h1v1h-1z"/><path fill="#F1A270" d="M33 50h1v1h-1z"/><path fill="#FDCEA6" d="M34 50h1v1h-1zM35 50h1v1h-1zM36 50h1v1h-1zM37 50h1v1h-1zM38 50h1v1h-1zM39 50h1v1h-1z"/><path fill="#B66800" d="M40 50h1v1h-1zM41 50h1v1h-1z"/><path fill="#B47014" d="M42 50h1v1h-1zM43 50h1v1h-1z"/><path fill="#B66800" d="M44 50h1v1h-1zM45 50h1v1h-1z"/><path fill="#935B10" d="M46 50h1v1h-1zM47 50h1v1h-1zM13 51h1v1h-1zM14 51h1v1h-1zM15 51h1v1h-1zM16 51h1v1h-1z"/><path fill="#B66800" d="M17 51h1v1h-1zM18 51h1v1h-1z"/><path fill="#B47014" d="M19 51h1v1h-1zM20 51h1v1h-1z"/><path fill="#FDCEA6" d="M21 51h1v1h-1zM22 51h1v1h-1zM23 51h1v1h-1zM24 51h1v1h-1z"/><path fill="#ED9F6E" d="M25 51h1v1h-1zM26 51h1v1h-1z"/><path fill="#FCBEA7" d="M27 51h1v1h-1zM28 51h1v1h-1zM29 51h1v1h-1zM30 51h1v1h-1z"/><path fill="#F2A371" d="M31 51h1v1h-1zM32 51h1v1h-1z"/><path fill="#F1A270" d="M33 51h1v1h-1z"/><path fill="#FDCEA6" d="M34 51h1v1h-1zM35 51h1v1h-1zM36 51h1v1h-1zM37 51h1v1h-1zM38 51h1v1h-1zM39 51h1v1h-1z"/><path fill="#B66800" d="M40 51h1v1h-1zM41 51h1v1h-1z"/><path fill="#B47014" d="M42 51h1v1h-1zM43 51h1v1h-1z"/><path fill="#B66800" d="M44 51h1v1h-1zM45 51h1v1h-1z"/><path fill="#935B10" d="M46 51h1v1h-1zM47 51h1v1h-1z"/><path fill="#B66800" d="M15 52h1v1h-1zM16 52h1v1h-1z"/><path fill="#935B10" d="M17 52h1v1h-1zM18 52h1v1h-1zM19 52h1v1h-1zM20 52h1v1h-1z"/><path fill="#FDCEA6" d="M21 52h1v1h-1zM22 52h1v1h-1zM23 52h1v1h-1zM24 52h1v1h-1zM25 52h1v1h-1zM26 52h1v1h-1zM27 52h1v1h-1zM28 52h1v1h-1zM29 52h1v1h-1zM30 52h1v1h-1zM31 52h1v1h-1zM32 52h1v1h-1zM33 52h1v1h-1zM34 52h1v1h-1zM35 52h1v1h-1zM36 52h1v1h-1zM37 52h1v1h-1z"/><path fill="#935B10" d="M38 52h1v1h-1zM39 52h1v1h-1zM40 52h1v1h-1zM41 52h1v1h-1z"/><path fill="#B47014" d="M42 52h1v1h-1zM43 52h1v1h-1z"/><path fill="#935B10" d="M44 52h1v1h-1zM45 52h1v1h-1z"/><path fill="#B66800" d="M15 53h1v1h-1zM16 53h1v1h-1z"/><path fill="#935B10" d="M17 53h1v1h-1zM18 53h1v1h-1zM19 53h1v1h-1zM20 53h1v1h-1z"/><path fill="#FDCEA6" d="M21 53h1v1h-1zM22 53h1v1h-1zM23 53h1v1h-1zM24 53h1v1h-1zM25 53h1v1h-1zM26 53h1v1h-1zM27 53h1v1h-1zM28 53h1v1h-1zM29 53h1v1h-1zM30 53h1v1h-1zM31 53h1v1h-1zM32 53h1v1h-1zM33 53h1v1h-1zM34 53h1v1h-1zM35 53h1v1h-1zM36 53h1v1h-1zM37 53h1v1h-1z"/><path fill="#935B10" d="M38 53h1v1h-1zM39 53h1v1h-1zM40 53h1v1h-1zM41 53h1v1h-1z"/><path fill="#B47014" d="M42 53h1v1h-1zM43 53h1v1h-1z"/><path fill="#935B10" d="M44 53h1v1h-1zM45 53h1v1h-1zM17 54h1v1h-1zM18 54h1v1h-1z"/><path fill="#B47014" d="M19 54h1v1h-1zM20 54h1v1h-1zM21 54h1v1h-1zM22 54h1v1h-1z"/><path fill="#FDCEA6" d="M23 54h1v1h-1zM24 54h1v1h-1zM25 54h1v1h-1zM26 54h1v1h-1zM27 54h1v1h-1zM28 54h1v1h-1zM29 54h1v1h-1zM30 54h1v1h-1zM31 54h1v1h-1zM32 54h1v1h-1zM33 54h1v1h-1zM34 54h1v1h-1zM35 54h1v1h-1z"/><path fill="#B66800" d="M36 54h1v1h-1zM37 54h1v1h-1z"/><path fill="#935B10" d="M38 54h1v1h-1zM39 54h1v1h-1z"/><path fill="#B66800" d="M40 54h1v1h-1zM41 54h1v1h-1z"/><path fill="#935B10" d="M42 54h1v1h-1zM43 54h1v1h-1zM17 55h1v1h-1zM18 55h1v1h-1z"/><path fill="#B47014" d="M19 55h1v1h-1zM20 55h1v1h-1zM21 55h1v1h-1zM22 55h1v1h-1z"/><path fill="#FDCEA6" d="M23 55h1v1h-1zM24 55h1v1h-1zM25 55h1v1h-1zM26 55h1v1h-1zM27 55h1v1h-1zM28 55h1v1h-1zM29 55h1v1h-1zM30 55h1v1h-1zM31 55h1v1h-1zM32 55h1v1h-1zM33 55h1v1h-1zM34 55h1v1h-1zM35 55h1v1h-1z"/><path fill="#B66800" d="M36 55h1v1h-1zM37 55h1v1h-1z"/><path fill="#935B10" d="M38 55h1v1h-1zM39 55h1v1h-1z"/><path fill="#B66800" d="M40 55h1v1h-1zM41 55h1v1h-1z"/><path fill="#935B10" d="M42 55h1v1h-1zM43 55h1v1h-1z"/><path fill="#B47014" d="M19 56h1v1h-1zM20 56h1v1h-1z"/><path fill="#935B10" d="M21 56h1v1h-1zM22 56h1v1h-1zM23 56h1v1h-1zM24 56h1v1h-1z"/><path fill="#B7865B" d="M25 56h1v1h-1zM26 56h1v1h-1z"/><path fill="#B66800" d="M27 56h1v1h-1zM28 56h1v1h-1zM29 56h1v1h-1zM30 56h1v1h-1z"/><path fill="#B7865B" d="M31 56h1v1h-1zM32 56h1v1h-1zM33 56h1v1h-1z"/><path fill="#B47014" d="M34 56h1v1h-1zM35 56h1v1h-1z"/><path fill="#935B10" d="M36 56h1v1h-1zM37 56h1v1h-1z"/><path fill="#B66800" d="M38 56h1v1h-1zM39 56h1v1h-1z"/><path fill="#935B10" d="M40 56h1v1h-1zM41 56h1v1h-1z"/><path fill="#B47014" d="M19 57h1v1h-1zM20 57h1v1h-1z"/><path fill="#935B10" d="M21 57h1v1h-1zM22 57h1v1h-1zM23 57h1v1h-1zM24 57h1v1h-1z"/><path fill="#B7865B" d="M25 57h1v1h-1zM26 57h1v1h-1z"/><path fill="#B66800" d="M27 57h1v1h-1zM28 57h1v1h-1zM29 57h1v1h-1zM30 57h1v1h-1z"/><path fill="#B7865B" d="M31 57h1v1h-1zM32 57h1v1h-1zM33 57h1v1h-1z"/><path fill="#B47014" d="M34 57h1v1h-1zM35 57h1v1h-1z"/><path fill="#935B10" d="M36 57h1v1h-1zM37 57h1v1h-1z"/><path fill="#B66800" d="M38 57h1v1h-1zM39 57h1v1h-1z"/><path fill="#935B10" d="M40 57h1v1h-1zM41 57h1v1h-1z"/><path fill="#B47014" d="M19 58h1v1h-1zM20 58h1v1h-1z"/><path fill="#935B10" d="M21 58h1v1h-1zM22 58h1v1h-1zM23 58h1v1h-1zM24 58h1v1h-1zM25 58h1v1h-1zM26 58h1v1h-1zM27 58h1v1h-1zM28 58h1v1h-1zM29 58h1v1h-1zM30 58h1v1h-1z"/><path fill="#B47014" d="M31 58h1v1h-1zM32 58h1v1h-1z"/><path fill="#B66800" d="M33 58h1v1h-1zM34 58h1v1h-1zM35 58h1v1h-1z"/><path fill="#935B10" d="M36 58h1v1h-1zM37 58h1v1h-1zM38 58h1v1h-1zM39 58h1v1h-1z"/><path fill="#B47014" d="M19 59h1v1h-1zM20 59h1v1h-1z"/><path fill="#935B10" d="M21 59h1v1h-1zM22 59h1v1h-1zM23 59h1v1h-1zM24 59h1v1h-1zM25 59h1v1h-1zM26 59h1v1h-1zM27 59h1v1h-1zM28 59h1v1h-1zM29 59h1v1h-1zM30 59h1v1h-1z"/><path fill="#B47014" d="M31 59h1v1h-1zM32 59h1v1h-1z"/><path fill="#B66800" d="M33 59h1v1h-1zM34 59h1v1h-1zM35 59h1v1h-1z"/><path fill="#935B10" d="M36 59h1v1h-1zM37 59h1v1h-1zM38 59h1v1h-1zM39 59h1v1h-1zM21 60h1v1h-1zM22 60h1v1h-1zM23 60h1v1h-1zM24 60h1v1h-1z"/><path fill="#B47014" d="M25 60h1v1h-1zM26 60h1v1h-1z"/><path fill="#B66800" d="M27 60h1v1h-1zM28 60h1v1h-1zM29 60h1v1h-1zM30 60h1v1h-1zM31 60h1v1h-1zM32 60h1v1h-1zM33 60h1v1h-1z"/><path fill="#935B10" d="M34 60h1v1h-1zM35 60h1v1h-1zM21 61h1v1h-1zM22 61h1v1h-1zM23 61h1v1h-1zM24 61h1v1h-1z"/><path fill="#B47014" d="M25 61h1v1h-1zM26 61h1v1h-1z"/><path fill="#B66800" d="M27 61h1v1h-1zM28 61h1v1h-1zM29 61h1v1h-1zM30 61h1v1h-1zM31 61h1v1h-1zM32 61h1v1h-1zM33 61h1v1h-1z"/><path fill="#935B10" d="M34 61h1v1h-1zM35 61h1v1h-1z"/></svg>